<mxfile host="65bd71144e">
    <diagram id="AiWqipxYwzd_8-sB697i" name="Page-1">
        <mxGraphModel dx="1983" dy="1325" grid="1" gridSize="10" guides="1" tooltips="1" connect="1" arrows="1" fold="1" page="1" pageScale="1" pageWidth="1600" pageHeight="1200" background="none" math="0" shadow="1">
            <root>
                <mxCell id="0"/>
                <mxCell id="1" parent="0"/>
                <mxCell id="2" value="Candidate Name" style="swimlane;fontStyle=0;childLayout=stackLayout;horizontal=1;startSize=26;horizontalStack=0;resizeParent=1;resizeParentMax=0;resizeLast=0;collapsible=1;marginBottom=0;rounded=0;sketch=0;strokeColor=#AF45ED;fillColor=#F694C1;fontColor=#0000FF;shadow=1;" vertex="1" parent="1">
                    <mxGeometry x="510" y="405" width="580" height="52" as="geometry"/>
                </mxCell>
                <mxCell id="3" value="- User (Ticket Buyer)" style="text;strokeColor=none;fillColor=none;align=left;verticalAlign=top;spacingLeft=4;spacingRight=4;overflow=hidden;rotatable=0;points=[[0,0.5],[1,0.5]];portConstraint=eastwest;fontColor=#0000FF;shadow=1;" vertex="1" parent="2">
                    <mxGeometry y="26" width="580" height="26" as="geometry"/>
                </mxCell>
                <mxCell id="4" value="Purpose/Definition" style="swimlane;fontStyle=0;childLayout=stackLayout;horizontal=1;startSize=26;horizontalStack=0;resizeParent=1;resizeParentMax=0;resizeLast=0;collapsible=1;marginBottom=0;rounded=0;sketch=0;strokeColor=#AF45ED;fillColor=#F694C1;fontColor=#0000FF;shadow=1;" vertex="1" parent="1">
                    <mxGeometry x="510" y="457" width="580" height="52" as="geometry"/>
                </mxCell>
                <mxCell id="5" value="- User interfaces with Kiosk to buy tickets to movies/ concerts/ plays they wish to attend." style="text;strokeColor=none;fillColor=none;align=left;verticalAlign=top;spacingLeft=4;spacingRight=4;overflow=hidden;rotatable=0;points=[[0,0.5],[1,0.5]];portConstraint=eastwest;fontColor=#0000FF;shadow=1;" vertex="1" parent="4">
                    <mxGeometry y="26" width="580" height="26" as="geometry"/>
                </mxCell>
                <mxCell id="6" value="Responsibilities" style="swimlane;fontStyle=0;childLayout=stackLayout;horizontal=1;startSize=26;horizontalStack=0;resizeParent=1;resizeParentMax=0;resizeLast=0;collapsible=1;marginBottom=0;rounded=0;sketch=0;strokeColor=#AF45ED;fillColor=#F694C1;fontColor=#0000FF;shadow=1;" vertex="1" parent="1">
                    <mxGeometry x="510" y="509" width="320" height="312" as="geometry"/>
                </mxCell>
                <mxCell id="7" value="- Cash Balance" style="text;strokeColor=none;fillColor=none;align=left;verticalAlign=top;spacingLeft=4;spacingRight=4;overflow=hidden;rotatable=0;points=[[0,0.5],[1,0.5]];portConstraint=eastwest;fontColor=#0000FF;shadow=1;" vertex="1" parent="6">
                    <mxGeometry y="26" width="320" height="26" as="geometry"/>
                </mxCell>
                <mxCell id="8" value="- CreditCard Limit" style="text;strokeColor=none;fillColor=none;align=left;verticalAlign=top;spacingLeft=4;spacingRight=4;overflow=hidden;rotatable=0;points=[[0,0.5],[1,0.5]];portConstraint=eastwest;fontColor=#0000FF;shadow=1;" vertex="1" parent="6">
                    <mxGeometry y="52" width="320" height="26" as="geometry"/>
                </mxCell>
                <mxCell id="9" value="- Bluetooth Capabilities" style="text;strokeColor=none;fillColor=none;align=left;verticalAlign=top;spacingLeft=4;spacingRight=4;overflow=hidden;rotatable=0;points=[[0,0.5],[1,0.5]];portConstraint=eastwest;fontColor=#0000FF;shadow=1;" vertex="1" parent="6">
                    <mxGeometry y="78" width="320" height="26" as="geometry"/>
                </mxCell>
                <mxCell id="10" value=" " style="text;strokeColor=none;fillColor=none;align=left;verticalAlign=top;spacingLeft=4;spacingRight=4;overflow=hidden;rotatable=0;points=[[0,0.5],[1,0.5]];portConstraint=eastwest;fontColor=#0000FF;shadow=1;" vertex="1" parent="6">
                    <mxGeometry y="104" width="320" height="26" as="geometry"/>
                </mxCell>
                <mxCell id="29" value=" " style="text;strokeColor=none;fillColor=none;align=left;verticalAlign=top;spacingLeft=4;spacingRight=4;overflow=hidden;rotatable=0;points=[[0,0.5],[1,0.5]];portConstraint=eastwest;fontColor=#0000FF;shadow=1;" vertex="1" parent="6">
                    <mxGeometry y="130" width="320" height="26" as="geometry"/>
                </mxCell>
                <mxCell id="11" value=" " style="text;strokeColor=none;fillColor=none;align=left;verticalAlign=top;spacingLeft=4;spacingRight=4;overflow=hidden;rotatable=0;points=[[0,0.5],[1,0.5]];portConstraint=eastwest;fontColor=#0000FF;shadow=1;" vertex="1" parent="6">
                    <mxGeometry y="156" width="320" height="26" as="geometry"/>
                </mxCell>
                <mxCell id="12" value="- View Advertisment" style="text;strokeColor=none;fillColor=none;align=left;verticalAlign=top;spacingLeft=4;spacingRight=4;overflow=hidden;rotatable=0;points=[[0,0.5],[1,0.5]];portConstraint=eastwest;fontColor=#0000FF;shadow=1;" vertex="1" parent="6">
                    <mxGeometry y="182" width="320" height="26" as="geometry"/>
                </mxCell>
                <mxCell id="13" value="- Select Event    " style="text;strokeColor=none;fillColor=none;align=left;verticalAlign=top;spacingLeft=4;spacingRight=4;overflow=hidden;rotatable=0;points=[[0,0.5],[1,0.5]];portConstraint=eastwest;fontColor=#0000FF;shadow=1;" vertex="1" parent="6">
                    <mxGeometry y="208" width="320" height="26" as="geometry"/>
                </mxCell>
                <mxCell id="14" value="- Preview Event" style="text;strokeColor=none;fillColor=none;align=left;verticalAlign=top;spacingLeft=4;spacingRight=4;overflow=hidden;rotatable=0;points=[[0,0.5],[1,0.5]];portConstraint=eastwest;fontColor=#0000FF;shadow=1;" vertex="1" parent="6">
                    <mxGeometry y="234" width="320" height="26" as="geometry"/>
                </mxCell>
                <mxCell id="15" value="- Purchase Event Ticket (Credit / Cash)" style="text;strokeColor=none;fillColor=none;align=left;verticalAlign=top;spacingLeft=4;spacingRight=4;overflow=hidden;rotatable=0;points=[[0,0.5],[1,0.5]];portConstraint=eastwest;fontColor=#0000FF;shadow=1;" vertex="1" parent="6">
                    <mxGeometry y="260" width="320" height="26" as="geometry"/>
                </mxCell>
                <mxCell id="16" value="- Acquire Event Ticket / Reciept (Physical / Digital)" style="text;strokeColor=none;fillColor=none;align=left;verticalAlign=top;spacingLeft=4;spacingRight=4;overflow=hidden;rotatable=0;points=[[0,0.5],[1,0.5]];portConstraint=eastwest;fontColor=#0000FF;shadow=1;" vertex="1" parent="6">
                    <mxGeometry y="286" width="320" height="26" as="geometry"/>
                </mxCell>
                <mxCell id="17" value="Collaborators" style="swimlane;fontStyle=0;childLayout=stackLayout;horizontal=1;startSize=26;horizontalStack=0;resizeParent=1;resizeParentMax=0;resizeLast=0;collapsible=1;marginBottom=0;rounded=0;sketch=0;strokeColor=#AF45ED;fillColor=#F694C1;fontColor=#0000FF;shadow=1;" vertex="1" parent="1">
                    <mxGeometry x="830" y="509" width="260" height="312" as="geometry"/>
                </mxCell>
                <mxCell id="18" value="- LCD Screen " style="text;strokeColor=none;fillColor=none;align=left;verticalAlign=top;spacingLeft=4;spacingRight=4;overflow=hidden;rotatable=0;points=[[0,0.5],[1,0.5]];portConstraint=eastwest;fontColor=#0000FF;shadow=1;" vertex="1" parent="17">
                    <mxGeometry y="26" width="260" height="26" as="geometry"/>
                </mxCell>
                <mxCell id="19" value="- Speakers    " style="text;strokeColor=none;fillColor=none;align=left;verticalAlign=top;spacingLeft=4;spacingRight=4;overflow=hidden;rotatable=0;points=[[0,0.5],[1,0.5]];portConstraint=eastwest;fontColor=#0000FF;shadow=1;" vertex="1" parent="17">
                    <mxGeometry y="52" width="260" height="26" as="geometry"/>
                </mxCell>
                <mxCell id="20" value="- Event DataBase" style="text;strokeColor=none;fillColor=none;align=left;verticalAlign=top;spacingLeft=4;spacingRight=4;overflow=hidden;rotatable=0;points=[[0,0.5],[1,0.5]];portConstraint=eastwest;fontColor=#0000FF;shadow=1;" vertex="1" parent="17">
                    <mxGeometry y="78" width="260" height="26" as="geometry"/>
                </mxCell>
                <mxCell id="21" value="- Media DataBase" style="text;strokeColor=none;fillColor=none;align=left;verticalAlign=top;spacingLeft=4;spacingRight=4;overflow=hidden;rotatable=0;points=[[0,0.5],[1,0.5]];portConstraint=eastwest;fontColor=#0000FF;shadow=1;" vertex="1" parent="17">
                    <mxGeometry y="104" width="260" height="26" as="geometry"/>
                </mxCell>
                <mxCell id="22" value="- Cash Exchanger" style="text;strokeColor=none;fillColor=none;align=left;verticalAlign=top;spacingLeft=4;spacingRight=4;overflow=hidden;rotatable=0;points=[[0,0.5],[1,0.5]];portConstraint=eastwest;fontColor=#0000FF;shadow=1;" vertex="1" parent="17">
                    <mxGeometry y="130" width="260" height="26" as="geometry"/>
                </mxCell>
                <mxCell id="23" value="- Printer" style="text;strokeColor=none;fillColor=none;align=left;verticalAlign=top;spacingLeft=4;spacingRight=4;overflow=hidden;rotatable=0;points=[[0,0.5],[1,0.5]];portConstraint=eastwest;fontColor=#0000FF;shadow=1;" vertex="1" parent="17">
                    <mxGeometry y="156" width="260" height="26" as="geometry"/>
                </mxCell>
                <mxCell id="24" value="- Credit Card Reader + DataBase" style="text;strokeColor=none;fillColor=none;align=left;verticalAlign=top;spacingLeft=4;spacingRight=4;overflow=hidden;rotatable=0;points=[[0,0.5],[1,0.5]];portConstraint=eastwest;fontColor=#0000FF;shadow=1;" vertex="1" parent="17">
                    <mxGeometry y="182" width="260" height="26" as="geometry"/>
                </mxCell>
                <mxCell id="25" value="- Bluetooth Module" style="text;strokeColor=none;fillColor=none;align=left;verticalAlign=top;spacingLeft=4;spacingRight=4;overflow=hidden;rotatable=0;points=[[0,0.5],[1,0.5]];portConstraint=eastwest;fontColor=#0000FF;shadow=1;" vertex="1" parent="17">
                    <mxGeometry y="208" width="260" height="26" as="geometry"/>
                </mxCell>
                <mxCell id="26" value="- Advertisment DataBase" style="text;strokeColor=none;fillColor=none;align=left;verticalAlign=top;spacingLeft=4;spacingRight=4;overflow=hidden;rotatable=0;points=[[0,0.5],[1,0.5]];portConstraint=eastwest;fontColor=#0000FF;shadow=1;" vertex="1" parent="17">
                    <mxGeometry y="234" width="260" height="26" as="geometry"/>
                </mxCell>
                <mxCell id="27" value=" " style="text;strokeColor=none;fillColor=none;align=left;verticalAlign=top;spacingLeft=4;spacingRight=4;overflow=hidden;rotatable=0;points=[[0,0.5],[1,0.5]];portConstraint=eastwest;fontColor=#0000FF;shadow=1;" vertex="1" parent="17">
                    <mxGeometry y="260" width="260" height="26" as="geometry"/>
                </mxCell>
                <mxCell id="30" value=" " style="text;strokeColor=none;fillColor=none;align=left;verticalAlign=top;spacingLeft=4;spacingRight=4;overflow=hidden;rotatable=0;points=[[0,0.5],[1,0.5]];portConstraint=eastwest;fontColor=#0000FF;shadow=1;" vertex="1" parent="17">
                    <mxGeometry y="286" width="260" height="26" as="geometry"/>
                </mxCell>
                <mxCell id="28" style="edgeStyle=orthogonalEdgeStyle;curved=0;rounded=1;sketch=0;orthogonalLoop=1;jettySize=auto;html=1;exitX=1;exitY=0.5;exitDx=0;exitDy=0;fontColor=#0000FF;strokeColor=#60E696;fillColor=#F694C1;shadow=1;" edge="1" parent="17" source="22" target="22">
                    <mxGeometry relative="1" as="geometry"/>
                </mxCell>
            </root>
        </mxGraphModel>
    </diagram>
</mxfile>